<?xml version="1.0" encoding="UTF-8" standalone="no"?>
<!DOCTYPE svg PUBLIC "-//W3C//DTD SVG 1.1//EN"
 "http://www.w3.org/Graphics/SVG/1.1/DTD/svg11.dtd">
<!-- Generated by graphviz version 2.36.0 (20140111.2315)
 -->
<!-- Title: DB4Sci_Arch Pages: 1 -->
<svg width="474pt" height="276pt"
 viewBox="0.00 0.00 474.00 276.00" xmlns="http://www.w3.org/2000/svg" xmlns:xlink="http://www.w3.org/1999/xlink">
<g id="graph0" class="graph" transform="scale(1 1) rotate(0) translate(4 272)">
<title>DB4Sci_Arch</title>
<polygon fill="white" stroke="none" points="-4,4 -4,-272 470,-272 470,4 -4,4"/>
<g id="clust2" class="cluster"><title>cluster_1</title>
<path fill="#e7e6e6" stroke="black" d="M126,-8C126,-8 446,-8 446,-8 452,-8 458,-14 458,-20 458,-20 458,-248 458,-248 458,-254 452,-260 446,-260 446,-260 126,-260 126,-260 120,-260 114,-254 114,-248 114,-248 114,-20 114,-20 114,-14 120,-8 126,-8"/>
<text text-anchor="middle" x="167.022" y="-232" font-family="Helvetica,sans-Serif" font-size="30.00">docker</text>
</g>
<!-- Users -->
<g id="node1" class="node"><title>Users</title>
<ellipse fill="#39b6b9" stroke="black" cx="43" cy="-177" rx="30.4949" ry="18"/>
<text text-anchor="middle" x="43" y="-172.8" font-family="Times,serif" font-size="14.00">Users</text>
</g>
<!-- nginx -->
<g id="node9" class="node"><title>nginx</title>
<polygon fill="#187d80" stroke="black" points="193.707,-191 122.293,-191 122.293,-155 193.707,-155 193.707,-191"/>
<text text-anchor="middle" x="158" y="-175.8" font-family="Times,serif" font-size="14.00">nginx</text>
<text text-anchor="middle" x="158" y="-161.8" font-family="Times,serif" font-size="14.00">Container</text>
</g>
<!-- Users&#45;&#45;nginx -->
<g id="edge7" class="edge"><title>Users&#45;&#45;nginx</title>
<path fill="none" stroke="black" d="M73.3944,-175.959C88.3041,-175.432 106.514,-174.787 122.128,-174.234"/>
</g>
<!-- adauth -->
<g id="node2" class="node"><title>adauth</title>
<ellipse fill="#8faadc" stroke="black" cx="43" cy="-123" rx="42.0889" ry="18"/>
<text text-anchor="middle" x="43" y="-118.8" font-family="Times,serif" font-size="14.00">AD Auth</text>
</g>
<!-- dbaas -->
<g id="node3" class="node"><title>dbaas</title>
<polygon fill="#89c348" stroke="black" points="244.831,-110 244.831,-168 305.169,-168 305.169,-110 244.831,-110"/>
<text text-anchor="middle" x="275" y="-152.8" font-family="Times,serif" font-size="14.00">uwsgi</text>
<polyline fill="none" stroke="black" points="244.831,-146 305.169,-146 "/>
<text text-anchor="middle" x="275" y="-130.8" font-family="Times,serif" font-size="14.00">DB4Sci</text>
<text text-anchor="middle" x="275" y="-116.8" font-family="Times,serif" font-size="14.00">Flask</text>
</g>
<!-- adauth&#45;&#45;dbaas -->
<g id="edge8" class="edge"><title>adauth&#45;&#45;dbaas</title>
<path fill="none" stroke="black" d="M85.0134,-125.897C131.108,-129.076 203.951,-134.1 244.749,-136.914"/>
</g>
<!-- db1 -->
<g id="node5" class="node"><title>db1</title>
<polygon fill="#0399d0" stroke="black" points="450,-52 356,-52 356,-16 450,-16 450,-52"/>
<text text-anchor="middle" x="403" y="-29.8" font-family="Times,serif" font-size="14.00">PostgreSQL</text>
</g>
<!-- dbaas&#45;&#45;db1 -->
<g id="edge6" class="edge"><title>dbaas:f2&#45;&#45;db1:w</title>
<path fill="none" stroke="black" d="M306,-128C306,-128 356,-34 356,-34"/>
</g>
<!-- db2 -->
<g id="node6" class="node"><title>db2</title>
<polygon fill="#ff7156" stroke="black" points="450,-106 356,-106 356,-70 450,-70 450,-106"/>
<text text-anchor="middle" x="403" y="-83.8" font-family="Times,serif" font-size="14.00">MariaDB</text>
</g>
<!-- dbaas&#45;&#45;db2 -->
<g id="edge5" class="edge"><title>dbaas:f2&#45;&#45;db2:w</title>
<path fill="none" stroke="black" d="M306,-128C306,-128 356,-88 356,-88"/>
</g>
<!-- db3 -->
<g id="node7" class="node"><title>db3</title>
<polygon fill="#62bdcf" stroke="black" points="450,-160 356,-160 356,-124 450,-124 450,-160"/>
<text text-anchor="middle" x="403" y="-137.8" font-family="Times,serif" font-size="14.00">Mongo</text>
</g>
<!-- dbaas&#45;&#45;db3 -->
<g id="edge4" class="edge"><title>dbaas:f2&#45;&#45;db3:w</title>
<path fill="none" stroke="black" d="M306,-128C306,-128 356,-142 356,-142"/>
</g>
<!-- db4 -->
<g id="node8" class="node"><title>db4</title>
<polygon fill="#548235" stroke="black" points="450,-214 356,-214 356,-178 450,-178 450,-214"/>
<text text-anchor="middle" x="403" y="-191.8" font-family="Times,serif" font-size="14.00">Neo4j</text>
</g>
<!-- dbaas&#45;&#45;db4 -->
<g id="edge3" class="edge"><title>dbaas:f2&#45;&#45;db4:w</title>
<path fill="none" stroke="black" d="M306,-128C306,-128 356,-196 356,-196"/>
</g>
<!-- mydb_admin -->
<g id="node4" class="node"><title>mydb_admin</title>
<polygon fill="lightblue" stroke="black" points="319.883,-78 230.117,-78 230.117,-42 319.883,-42 319.883,-78"/>
<text text-anchor="middle" x="275" y="-62.8" font-family="Times,serif" font-size="14.00">PostgreSQL</text>
<text text-anchor="middle" x="275" y="-48.8" font-family="Times,serif" font-size="14.00">mydb_admin</text>
</g>
<!-- mydb_admin&#45;&#45;dbaas -->
<g id="edge2" class="edge"><title>mydb_admin:n&#45;&#45;dbaas:f2</title>
<path fill="none" stroke="black" d="M281.354,-113.213C282.042,-101.782 281.834,-88.4965 280.731,-78.1875"/>
</g>
<!-- nginx&#45;&#45;dbaas -->
<g id="edge1" class="edge"><title>nginx&#45;&#45;dbaas:f0</title>
<path fill="none" stroke="black" d="M194.063,-166.4C217.478,-161.992 244,-157 244,-157"/>
</g>
</g>
</svg>
