<?xml version="1.0" encoding="UTF-8" standalone="no"?>
<!DOCTYPE svg PUBLIC "-//W3C//DTD SVG 1.1//EN"
 "http://www.w3.org/Graphics/SVG/1.1/DTD/svg11.dtd">
<!-- Generated by graphviz version 2.40.1 (20161225.0304)
 -->
<!-- Title: DB4Sci_Arch Pages: 1 -->
<svg width="497pt" height="279pt"
 viewBox="0.00 0.00 497.29 279.00" xmlns="http://www.w3.org/2000/svg" xmlns:xlink="http://www.w3.org/1999/xlink">
<g id="graph0" class="graph" transform="scale(1 1) rotate(0) translate(4 275)">
<title>DB4Sci_Arch</title>
<polygon fill="#ffffff" stroke="transparent" points="-4,4 -4,-275 493.2918,-275 493.2918,4 -4,4"/>
<g id="clust2" class="cluster">
<title>cluster_1</title>
<path fill="#e7e6e6" stroke="#000000" d="M132.2918,-8C132.2918,-8 469.2918,-8 469.2918,-8 475.2918,-8 481.2918,-14 481.2918,-20 481.2918,-20 481.2918,-251 481.2918,-251 481.2918,-257 475.2918,-263 469.2918,-263 469.2918,-263 132.2918,-263 132.2918,-263 126.2918,-263 120.2918,-257 120.2918,-251 120.2918,-251 120.2918,-20 120.2918,-20 120.2918,-14 126.2918,-8 132.2918,-8"/>
<text text-anchor="middle" x="164.7918" y="-235" font-family="Helvetica,sans-Serif" font-size="30.00" fill="#000000">docker</text>
</g>
<!-- Users -->
<g id="node1" class="node">
<title>Users</title>
<ellipse fill="#39b6b9" stroke="#000000" cx="46.1459" cy="-142" rx="31.3957" ry="18"/>
<text text-anchor="middle" x="46.1459" y="-138.3" font-family="Times,serif" font-size="14.00" fill="#000000">Users</text>
</g>
<!-- nginx -->
<g id="node9" class="node">
<title>nginx</title>
<polygon fill="#1f9fa1" stroke="#000000" points="201.2918,-157 128.2918,-157 128.2918,-119 201.2918,-119 201.2918,-157"/>
<text text-anchor="middle" x="164.7918" y="-141.8" font-family="Times,serif" font-size="14.00" fill="#000000">nginx</text>
<text text-anchor="middle" x="164.7918" y="-126.8" font-family="Times,serif" font-size="14.00" fill="#000000">Container</text>
</g>
<!-- Users&#45;&gt;nginx -->
<g id="edge7" class="edge">
<title>Users&#45;&gt;nginx</title>
<path fill="none" stroke="#000000" d="M77.3187,-140.949C92.8354,-140.4259 111.6969,-139.79 127.9272,-139.2428"/>
</g>
<!-- adauth -->
<g id="node2" class="node">
<title>adauth</title>
<ellipse fill="#8faadc" stroke="#000000" cx="46.1459" cy="-88" rx="46.2923" ry="18"/>
<text text-anchor="middle" x="46.1459" y="-84.3" font-family="Times,serif" font-size="14.00" fill="#000000">AD Auth</text>
</g>
<!-- dbaas -->
<g id="node3" class="node">
<title>dbaas</title>
<polygon fill="#89c348" stroke="#000000" points="237.2918,-94 237.2918,-132 343.2918,-132 343.2918,-94 237.2918,-94"/>
<text text-anchor="middle" x="260.7918" y="-109.3" font-family="Times,serif" font-size="14.00" fill="#000000">uwsgi</text>
<polyline fill="none" stroke="#000000" points="284.2918,-94 284.2918,-132 "/>
<text text-anchor="middle" x="313.7918" y="-116.8" font-family="Times,serif" font-size="14.00" fill="#000000">DB4Sci</text>
<text text-anchor="middle" x="313.7918" y="-101.8" font-family="Times,serif" font-size="14.00" fill="#000000">Flask</text>
</g>
<!-- adauth&#45;&gt;dbaas -->
<g id="edge8" class="edge">
<title>adauth&#45;&gt;dbaas</title>
<path fill="none" stroke="#000000" d="M90.926,-92.5854C132.0869,-96.8002 193.1644,-103.0544 236.8592,-107.5286"/>
</g>
<!-- mydb_admin -->
<g id="node4" class="node">
<title>mydb_admin</title>
<polygon fill="#add8e6" stroke="#000000" points="334.7918,-189 245.7918,-189 245.7918,-151 334.7918,-151 334.7918,-189"/>
<text text-anchor="middle" x="290.2918" y="-173.8" font-family="Times,serif" font-size="14.00" fill="#000000">PostgreSQL</text>
<text text-anchor="middle" x="290.2918" y="-158.8" font-family="Times,serif" font-size="14.00" fill="#000000">mydb_admin</text>
</g>
<!-- db1 -->
<g id="node5" class="node">
<title>db1</title>
<polygon fill="#0399d0" stroke="#000000" points="473.2918,-52 379.2918,-52 379.2918,-16 473.2918,-16 473.2918,-52"/>
<text text-anchor="middle" x="426.2918" y="-30.3" font-family="Times,serif" font-size="14.00" fill="#000000">PostgreSQL</text>
</g>
<!-- dbaas&#45;&gt;db1 -->
<g id="edge6" class="edge">
<title>dbaas:f2&#45;&gt;db1:w</title>
<path fill="none" stroke="#000000" d="M343.2918,-113C343.2918,-113 379.2918,-34 379.2918,-34"/>
</g>
<!-- db2 -->
<g id="node6" class="node">
<title>db2</title>
<polygon fill="#ff7156" stroke="#000000" points="473.2918,-106 379.2918,-106 379.2918,-70 473.2918,-70 473.2918,-106"/>
<text text-anchor="middle" x="426.2918" y="-84.3" font-family="Times,serif" font-size="14.00" fill="#000000">MariaDB</text>
</g>
<!-- dbaas&#45;&gt;db2 -->
<g id="edge5" class="edge">
<title>dbaas:f2&#45;&gt;db2:w</title>
<path fill="none" stroke="#000000" d="M343.2918,-113C343.2918,-113 379.2918,-88 379.2918,-88"/>
</g>
<!-- db3 -->
<g id="node7" class="node">
<title>db3</title>
<polygon fill="#62bdcf" stroke="#000000" points="473.2918,-160 379.2918,-160 379.2918,-124 473.2918,-124 473.2918,-160"/>
<text text-anchor="middle" x="426.2918" y="-138.3" font-family="Times,serif" font-size="14.00" fill="#000000">Mongo</text>
</g>
<!-- dbaas&#45;&gt;db3 -->
<g id="edge4" class="edge">
<title>dbaas:f2&#45;&gt;db3:w</title>
<path fill="none" stroke="#000000" d="M343.2918,-113C343.2918,-113 379.2918,-142 379.2918,-142"/>
</g>
<!-- db4 -->
<g id="node8" class="node">
<title>db4</title>
<polygon fill="#548235" stroke="#000000" points="473.2918,-214 379.2918,-214 379.2918,-178 473.2918,-178 473.2918,-214"/>
<text text-anchor="middle" x="426.2918" y="-192.3" font-family="Times,serif" font-size="14.00" fill="#000000">Neo4j</text>
</g>
<!-- dbaas&#45;&gt;db4 -->
<g id="edge3" class="edge">
<title>dbaas:f2&#45;&gt;db4:w</title>
<path fill="none" stroke="#000000" d="M343.2918,-113C343.2918,-113 379.2918,-196 379.2918,-196"/>
</g>
<!-- nginx&#45;&gt;dbaas -->
<g id="edge1" class="edge">
<title>nginx&#45;&gt;dbaas:f0</title>
<path fill="none" stroke="#000000" d="M201.4666,-125.3535C219.4489,-119.1527 237.2918,-113 237.2918,-113"/>
</g>
</g>
</svg>
